<?xml version="1.0" encoding="utf-8"?>
<!-- Generator: Adobe Illustrator 27.4.0, SVG Export Plug-In . SVG Version: 6.00 Build 0)  -->
<svg version="1.1" id="Lager_1" xmlns="http://www.w3.org/2000/svg" xmlns:xlink="http://www.w3.org/1999/xlink" x="0px" y="0px"
	 viewBox="0 0 24 24" style="enable-background:new 0 0 24 24;" xml:space="preserve">
<style type="text/css">
	.st0{fill:#222725;}
</style>
<g>
	<path class="st0" d="M20.1,18.3c-1,0-1.8,0.8-1.8,1.8c0,1,0.8,1.8,1.8,1.8c1,0,1.8-0.8,1.8-1.8C21.9,19.1,21.1,18.3,20.1,18.3z"/>
	<path class="st0" d="M12,18.3c-1,0-1.8,0.8-1.8,1.8c0,1,0.8,1.8,1.8,1.8s1.8-0.8,1.8-1.8C13.8,19.1,13,18.3,12,18.3z"/>
	<path class="st0" d="M3.9,18.3c-1,0-1.8,0.8-1.8,1.8c0,1,0.8,1.8,1.8,1.8c1,0,1.8-0.8,1.8-1.8C5.7,19.1,4.9,18.3,3.9,18.3z"/>
	<path class="st0" d="M20.1,10.2c-1,0-1.8,0.8-1.8,1.8s0.8,1.8,1.8,1.8c1,0,1.8-0.8,1.8-1.8S21.1,10.2,20.1,10.2z"/>
	<circle class="st0" cx="12" cy="12" r="1.8"/>
	<path class="st0" d="M3.9,10.2c-1,0-1.8,0.8-1.8,1.8s0.8,1.8,1.8,1.8c1,0,1.8-0.8,1.8-1.8S4.9,10.2,3.9,10.2z"/>
	<path class="st0" d="M20.1,5.7c1,0,1.8-0.8,1.8-1.8c0-1-0.8-1.8-1.8-1.8c-1,0-1.8,0.8-1.8,1.8C18.3,4.9,19.1,5.7,20.1,5.7z"/>
	<path class="st0" d="M12,2.1c-1,0-1.8,0.8-1.8,1.8c0,1,0.8,1.8,1.8,1.8s1.8-0.8,1.8-1.8C13.8,2.9,13,2.1,12,2.1z"/>
	<path class="st0" d="M3.9,2.1c-1,0-1.8,0.8-1.8,1.8c0,1,0.8,1.8,1.8,1.8c1,0,1.8-0.8,1.8-1.8C5.7,2.9,4.9,2.1,3.9,2.1z"/>
</g>
</svg>
