<?xml version="1.0" encoding="utf-8"?>
<!-- Generator: Adobe Illustrator 27.4.0, SVG Export Plug-In . SVG Version: 6.00 Build 0)  -->
<svg version="1.1" id="Lager_1" xmlns="http://www.w3.org/2000/svg" xmlns:xlink="http://www.w3.org/1999/xlink" x="0px" y="0px"
	 viewBox="0 0 24 24" style="enable-background:new 0 0 24 24;" xml:space="preserve">
<style type="text/css">
	.st0{fill:#222725;}
</style>
<path class="st0" d="M19,11.5c-0.3-0.3-0.7-0.3-1-0.1l-1.1-5.5c-0.1-0.3-0.3-0.5-0.6-0.6L2.9,2C2.9,2,2.8,2,2.8,2c0,0,0,0,0,0
	c-0.1,0-0.2,0-0.3,0c0,0,0,0-0.1,0c-0.1,0-0.2,0.1-0.2,0.2C2.2,2.3,2.1,2.4,2.1,2.5c0,0,0,0,0,0.1c0,0.1,0,0.2,0,0.3c0,0,0,0,0,0
	c0,0.1,0,0.1,0,0.2l3.2,13.4c0.1,0.3,0.3,0.5,0.6,0.6l5.5,1.1c-0.2,0.3-0.2,0.7,0.1,1l2.8,2.8c0.2,0.2,0.3,0.2,0.5,0.2
	c0.2,0,0.4-0.1,0.5-0.2l6.5-6.5c0.3-0.3,0.3-0.8,0-1.1L19,11.5z M4.2,5.2l4.6,4.6c-0.2,0.4-0.3,0.8-0.3,1.2c0,1.4,1.2,2.6,2.6,2.6
	c1.4,0,2.6-1.2,2.6-2.6c0-1.4-1.2-2.6-2.6-2.6c-0.4,0-0.8,0.1-1.2,0.3L5.2,4.2l10.3,2.5l1.2,6l-4,4l-6-1.2L4.2,5.2z M11.1,10
	c0.6,0,1.1,0.5,1.1,1.1s-0.5,1.1-1.1,1.1c-0.6,0-1.1-0.5-1.1-1.1S10.5,10,11.1,10z M14.8,20.1l-1.7-1.7l0.4-0.4l4.6-4.6l0.4-0.4
	l1.7,1.7L14.8,20.1z"/>
<path class="st0" d="M60.5,14.3l-2.8-2.8c-0.1-0.1-0.3-0.2-0.5-0.2c-0.2,0-0.4,0.1-0.5,0.2l-1.1-5.7c-0.1-0.3-0.3-0.5-0.5-0.6
	L41.5,2c0,0-0.1,0-0.1,0c0,0,0,0,0,0c-0.1,0-0.2,0-0.2,0c0,0,0,0-0.1,0c-0.1,0-0.1,0.1-0.2,0.1c-0.1,0.1-0.1,0.1-0.1,0.2
	c0,0,0,0,0,0.1c0,0.1,0,0.2,0,0.2c0,0,0,0,0,0c0,0,0,0.1,0,0.1l3.3,13.5c0.1,0.3,0.3,0.5,0.6,0.5l5.7,1.1c-0.1,0.1-0.2,0.3-0.2,0.5
	c0,0.2,0.1,0.4,0.2,0.5l2.8,2.8c0.1,0.1,0.3,0.2,0.5,0.2s0.4-0.1,0.5-0.2l6.5-6.5C60.7,15,60.7,14.6,60.5,14.3z M42.7,5l4.8,4.8
	c-0.2,0.4-0.3,0.8-0.3,1.2c0,1.4,1.2,2.6,2.6,2.6c1.4,0,2.6-1.2,2.6-2.6s-1.2-2.6-2.6-2.6c-0.4,0-0.9,0.1-1.2,0.3L43.7,4l10.6,2.5
	l1.2,6.1l-4.1,4.1l-6.1-1.2L42.7,5z M49.7,9.9c0.6,0,1.1,0.5,1.1,1.1c0,0.6-0.5,1.1-1.1,1.1c-0.6,0-1.1-0.5-1.1-1.1
	C48.6,10.4,49.1,9.9,49.7,9.9z M53.4,20.3l-1.8-1.8l5.5-5.5l1.8,1.8L53.4,20.3z"/>
</svg>
