<?xml version="1.0" encoding="utf-8"?>
<!-- Generator: Adobe Illustrator 27.4.0, SVG Export Plug-In . SVG Version: 6.00 Build 0)  -->
<svg version="1.1" id="Lager_1" xmlns="http://www.w3.org/2000/svg" xmlns:xlink="http://www.w3.org/1999/xlink" x="0px" y="0px"
	 viewBox="0 0 543.1 512" style="enable-background:new 0 0 543.1 512;" xml:space="preserve">
<style type="text/css">
	.st0{fill:#222725;stroke:#FFFFFF;stroke-width:10;stroke-miterlimit:10;}
	.st1{fill:none;stroke:#000000;stroke-width:30;stroke-linecap:round;stroke-linejoin:round;}
	.st2{fill:#222725;}
	.st3{fill:none;stroke:#222725;stroke-width:20;stroke-linecap:round;stroke-linejoin:round;}
</style>
<path class="st0" d="M409,432H149c-37.2,0-71.8-12.9-97.5-36.2C24.7,371.5,10,337.9,10,301c0-37.4,13.7-69.8,39.7-93.4
	c20-18.2,47.1-30.7,77.2-35.8c9.6-24.4,25.5-46.5,45.5-63.2C199.4,85.9,232.8,74,269,74c41.1,0,79.9,15.5,109.2,43.7
	c27.1,26.1,44.8,61.1,51.6,102c49.8,8.1,98.1,42.5,98.1,105.3c0,34.3-12.6,62.5-36.5,81.6C470.6,423.2,442.1,432,409,432z M269,112
	c-27.2,0-52.2,8.9-72.2,25.7c-17.5,14.7-30.9,34.9-37.6,56.9c-2.2,7.3-8.7,12.6-16.3,13.4C97,212.5,48,239.4,48,301
	c0,26.4,10,49.4,29,66.7c18.7,17,44.3,26.3,72,26.3h260c24.4,0,81-6.7,81-69c0-51.3-49-67.5-78-69c-9.4-0.5-17-7.8-17.9-17.1
	c-3.8-38.4-18.4-70.8-42.2-93.8C329.7,123.8,300.3,112,269,112z"/>
<path class="st1" d="M-90.8-211v-13.3c0-44.2-35.9-80-80-80c-18.6,0-36.6,6.5-51,18.4 M-250.6-237.4v13.3c0,44.2,35.9,80,80.1,79.9
	c18.5,0,36.4-6.4,50.7-18.1"/>
<path class="st1" d="M-230.6-224.2l-20-20l-20,20 M-70.6-224.2l-20,20l-20-20"/>
<path class="st2" d="M-470.5,432c-80.4,0-151-54.9-170.6-133.3c-11.8-45.1-5.9-94.1,19.6-133.3c23.5-41.2,62.7-68.6,107.8-80.4
	s94.1-5.9,133.3,19.6c35.3,19.6,62.7,52.9,76.5,92.1h9.8c64.7,0,117.6,52.9,117.6,117.6S-229.4,432-294.1,432H-470.5L-470.5,432z
	 M-470.5,118.3c-11.8,0-23.5,2-35.3,3.9c-35.3,9.8-64.7,31.4-82.3,62.7c-17.6,31.4-23.5,68.6-13.7,103.9
	c13.7,60.8,68.6,103.9,131.4,103.9l0,0h176.5c43.1,0,78.4-35.3,78.4-78.4s-35.3-78.4-78.4-78.4h-25.5c-9.8,0-17.6-5.9-19.6-15.7
	C-352.9,159.5-409.8,118.3-470.5,118.3z"/>
<g>
	<polyline class="st3" points="187.8,200.2 187.8,252.3 240,252.3 	"/>
	<polyline class="st3" points="369.2,339.3 369.2,287.1 317,287.1 	"/>
	<path class="st3" d="M357.3,243.6c-14.4-40.8-59.2-62.1-99.9-47.7c-11,3.9-21,10.2-29.3,18.5l-40.4,37.9 M369.2,287.1l-40.4,37.9
		c-30.6,30.6-80.1,30.6-110.7,0c-8.3-8.3-14.6-18.2-18.5-29.3"/>
</g>
</svg>
