<?xml version="1.0" encoding="utf-8"?>
<!-- Generator: Adobe Illustrator 27.4.0, SVG Export Plug-In . SVG Version: 6.00 Build 0)  -->
<svg version="1.1" id="Lager_1" xmlns="http://www.w3.org/2000/svg" xmlns:xlink="http://www.w3.org/1999/xlink" x="0px" y="0px"
	 viewBox="0 0 24 24" style="enable-background:new 0 0 24 24;" xml:space="preserve">
<style type="text/css">
	.st0{fill:#222725;}
</style>
<path class="st0" d="M19.9,1H4.1C2.4,1,1,2.4,1,4.1v15.9C1,21.6,2.4,23,4.1,23h15.9c1.7,0,3.1-1.4,3.1-3.1V4.1C23,2.4,21.6,1,19.9,1
	z M17.9,7.8h3.4v3.4h-3.4V7.8z M16.2,11.2H7.8V2.7h8.5V11.2z M6.1,11.2H2.7V7.8h3.4V11.2z M2.7,12.8h3.4v3.4H2.7V12.8z M7.8,12.8
	h8.5v8.5H7.8V12.8z M17.9,12.8h3.4v3.4h-3.4V12.8z M21.3,4.1v2h-3.4V2.7h2C20.7,2.7,21.3,3.3,21.3,4.1z M4.1,2.7h2v3.4H2.7v-2
	C2.7,3.3,3.3,2.7,4.1,2.7z M2.7,19.9v-2h3.4v3.4h-2C3.3,21.3,2.7,20.7,2.7,19.9z M19.9,21.3h-2v-3.4h3.4v2
	C21.3,20.7,20.7,21.3,19.9,21.3z"/>
</svg>
