<?xml version="1.0" encoding="utf-8"?>
<!-- Generator: Adobe Illustrator 27.4.0, SVG Export Plug-In . SVG Version: 6.00 Build 0)  -->
<svg version="1.1" id="Lager_1" xmlns="http://www.w3.org/2000/svg" xmlns:xlink="http://www.w3.org/1999/xlink" x="0px" y="0px"
	 viewBox="0 0 24 24" style="enable-background:new 0 0 24 24;" xml:space="preserve">
<style type="text/css">
	.st0{fill:#222725;}
</style>
<path class="st0" d="M12,22.2c-0.3,0-0.5-0.1-0.7-0.3l-8.8-8.8c-1.2-1.2-1.9-2.9-1.9-4.6s0.7-3.4,1.9-4.6S5.3,2,7,2
	c1.7,0,3.4,0.7,4.6,1.9L12,4.3l0.4-0.4c0,0,0,0,0,0C13.6,2.7,15.2,2,17,2h0c1.7,0,3.4,0.7,4.6,1.9l0,0c2.5,2.5,2.5,6.7,0,9.2
	l-8.8,8.8C12.5,22.1,12.3,22.2,12,22.2z M7,4C5.9,4,4.7,4.4,3.9,5.3c-1.8,1.8-1.8,4.6,0,6.4l8.1,8.1l8.1-8.1c0.9-0.9,1.3-2,1.3-3.2
	c0-1.2-0.5-2.3-1.3-3.2l0,0C19.3,4.5,18.2,4,17,4c0,0,0,0,0,0c-1.2,0-2.3,0.5-3.2,1.3l0,0c0,0,0,0,0,0l-1,1.1c-0.4,0.4-1,0.4-1.4,0
	l-1.1-1.1C9.4,4.4,8.2,4,7,4z"/>
</svg>
