<?xml version="1.0" encoding="utf-8"?>
<!-- Generator: Adobe Illustrator 27.4.0, SVG Export Plug-In . SVG Version: 6.00 Build 0)  -->
<svg version="1.1" id="Lager_1" xmlns="http://www.w3.org/2000/svg" xmlns:xlink="http://www.w3.org/1999/xlink" x="0px" y="0px"
	 viewBox="0 0 24 24" style="enable-background:new 0 0 24 24;" xml:space="preserve">
<style type="text/css">
	.st0{fill:#222725;}
</style>
<path class="st0" d="M21,22H3c-1.7,0-3-1.3-3-3V8c0-1.7,1.3-3,3-3h3.5l1.7-2.6C8.4,2.2,8.7,2,9,2h6c0.3,0,0.6,0.2,0.8,0.4L17.5,5H21
	c1.7,0,3,1.3,3,3v11C24,20.7,22.7,22,21,22z M3,7C2.4,7,2,7.4,2,8v11c0,0.6,0.4,1,1,1h18c0.6,0,1-0.4,1-1V8c0-0.6-0.4-1-1-1h-4
	c-0.3,0-0.6-0.2-0.8-0.4L14.5,4H9.5L7.8,6.6C7.6,6.8,7.3,7,7,7H3z"/>
<path class="st0" d="M12,18c-2.8,0-5-2.2-5-5s2.2-5,5-5s5,2.2,5,5S14.8,18,12,18z M12,10c-1.7,0-3,1.3-3,3s1.3,3,3,3s3-1.3,3-3
	S13.7,10,12,10z"/>
</svg>
