<?xml version="1.0" encoding="utf-8"?>
<!-- Generator: Adobe Illustrator 27.4.0, SVG Export Plug-In . SVG Version: 6.00 Build 0)  -->
<svg version="1.1" id="Lager_1" xmlns="http://www.w3.org/2000/svg" xmlns:xlink="http://www.w3.org/1999/xlink" x="0px" y="0px"
	 viewBox="0 0 24 24" style="enable-background:new 0 0 24 24;" xml:space="preserve">
<style type="text/css">
	.st0{fill:#222725;}
</style>
<path class="st0" d="M16.5,23.7H6.9c-1.7,0-3.1-1.4-3.1-3.1V3.5c0-1.7,1.4-3.1,3.1-3.1h9.7c1.7,0,3.1,1.4,3.1,3.1v17.1
	C19.7,22.3,18.3,23.7,16.5,23.7z M6.8,2.1c-0.7,0-1.2,0.5-1.2,1.2v17.5c0,0.6,0.5,1.1,1.1,1.1h10c0.6,0,1.1-0.5,1.1-1.1V3.3
	c0-0.6-0.5-1.1-1.1-1.1L6.8,2.1z"/>
<path class="st0" d="M11.8,21.2c-0.7,0-1.2-0.5-1.2-1.2s0.5-1.2,1.2-1.2l0,0c0.7,0,1.2,0.5,1.2,1.2S12.5,21.2,11.8,21.2z"/>
</svg>
