<?xml version="1.0" encoding="utf-8"?>
<!-- Generator: Adobe Illustrator 27.4.0, SVG Export Plug-In . SVG Version: 6.00 Build 0)  -->
<svg version="1.1" id="Lager_1" xmlns="http://www.w3.org/2000/svg" xmlns:xlink="http://www.w3.org/1999/xlink" x="0px" y="0px"
	 viewBox="0 0 24 24" style="enable-background:new 0 0 24 24;" xml:space="preserve">
<style type="text/css">
	.st0{fill:#222725;}
</style>
<path class="st0" d="M18.5,19h-12c-1.7,0-3.3-0.6-4.5-1.7C0.7,16.2,0,14.6,0,12.9c0-1.7,0.6-3.2,1.8-4.3C2.8,7.7,4,7.1,5.4,6.9
	C5.9,5.8,6.6,4.7,7.5,4c1.3-1,2.8-1.6,4.5-1.6c1.9,0,3.7,0.7,5.1,2c1.3,1.2,2.1,2.8,2.4,4.7c2.3,0.4,4.5,2,4.5,4.9
	c0,1.6-0.6,2.9-1.7,3.8C21.3,18.6,20,19,18.5,19z M12,4.3c-1.2,0-2.4,0.4-3.3,1.2C7.9,6.1,7.3,7,7,8C6.9,8.4,6.6,8.6,6.3,8.6
	C4.2,8.8,2,10,2,12.8c0,1.2,0.5,2.2,1.3,3c0.8,0.8,2,1.2,3.3,1.2h11.8c1.1,0,3.7-0.3,3.7-3.1c0-2.3-2.2-3.1-3.5-3.1
	c-0.4,0-0.8-0.4-0.8-0.8c-0.2-1.7-0.8-3.2-1.9-4.2C14.7,4.8,13.4,4.3,12,4.3z"/>
</svg>
