<?xml version="1.0" encoding="utf-8"?>
<!-- Generator: Adobe Illustrator 27.4.0, SVG Export Plug-In . SVG Version: 6.00 Build 0)  -->
<svg version="1.1" id="Lager_1" xmlns="http://www.w3.org/2000/svg" xmlns:xlink="http://www.w3.org/1999/xlink" x="0px" y="0px"
	 viewBox="0 0 24 24" style="enable-background:new 0 0 24 24;" xml:space="preserve">
<style type="text/css">
	.st0{fill:#222725;}
</style>
<path class="st0" d="M20.4,9.1l-17-7.1C3,1.9,2.6,2,2.3,2.3C2,2.6,1.9,3,2.1,3.4l7.1,17c0.2,0.4,0.5,0.6,0.9,0.6c0,0,0,0,0,0
	c0.4,0,0.8-0.3,0.9-0.7l2-5.9l5.3,5.3c0.2,0.2,0.5,0.3,0.7,0.3s0.5-0.1,0.7-0.3c0.4-0.4,0.4-1,0-1.4L14.4,13l5.9-2
	c0.4-0.1,0.7-0.5,0.7-0.9C21,9.7,20.7,9.3,20.4,9.1z M12.3,11.6c-0.3,0.1-0.5,0.3-0.6,0.6L10,17.1L4.9,4.9L17.1,10L12.3,11.6z"/>
</svg>
