<?xml version="1.0" encoding="utf-8"?>
<!-- Generator: Adobe Illustrator 27.4.0, SVG Export Plug-In . SVG Version: 6.00 Build 0)  -->
<svg version="1.1" id="Lager_1" xmlns="http://www.w3.org/2000/svg" xmlns:xlink="http://www.w3.org/1999/xlink" x="0px" y="0px"
	 viewBox="0 0 24 24" style="enable-background:new 0 0 24 24;" xml:space="preserve">
<style type="text/css">
	.st0{fill:#222725;}
</style>
<path class="st0" d="M23.5,6.1c-0.3-0.2-0.7-0.1-1,0.1L17,10.1V7c0-1.7-1.3-3-3-3H3C1.3,4,0,5.3,0,7v10c0,1.7,1.3,3,3,3h11
	c1.7,0,3-1.3,3-3v-3.1l5.4,3.9c0.2,0.1,0.4,0.2,0.6,0.2c0.2,0,0.3,0,0.5-0.1c0.3-0.2,0.5-0.5,0.5-0.9V7C24,6.6,23.8,6.3,23.5,6.1z
	 M15,17c0,0.6-0.4,1-1,1H3c-0.6,0-1-0.4-1-1V7c0-0.6,0.4-1,1-1h11c0.6,0,1,0.4,1,1V17z M22,15.1L17.7,12L22,8.9V15.1z"/>
</svg>
