<?xml version="1.0" encoding="utf-8"?>
<!-- Generator: Adobe Illustrator 27.2.0, SVG Export Plug-In . SVG Version: 6.00 Build 0)  -->
<svg version="1.1" id="Lager_1" xmlns="http://www.w3.org/2000/svg" xmlns:xlink="http://www.w3.org/1999/xlink" x="0px" y="0px"
	 viewBox="0 0 944.4 689" style="enable-background:new 0 0 944.4 689;" xml:space="preserve">
<style type="text/css">
	.st0{fill:#F5F5F5;}
</style>
<g>
	<path class="st0" d="M79,322.3c-16.7-9.1-29.9-21.7-39.4-37.7c-9.6-16-14.3-33.9-14.3-53.5c0-9.1,1.5-19.5,4.4-31.3l82.4-6.6
		c-1.2,3.8-2.4,8.2-3.5,13.2c-1.2,5-1.8,9.4-1.8,13.2c0,6.5,1.4,12.3,4.2,17.6c2.8,5.3,6.9,9.5,12.3,12.6s11.8,4.6,19.2,4.6
		c7.9,0,15.1-1.8,21.6-5.5s12.2-9.2,17.2-16.5s9-16.3,11.9-26.9l52.4-182.9h83.7l-59.9,206.7c-6.5,22.6-16,41.9-28.6,57.9
		s-27.8,28.1-45.4,36.4S157.8,336,135.5,336C114.6,336,95.8,331.4,79,322.3z M390.6,317c-22.3-12.6-39.6-30.2-51.8-52.7
		c-12.2-22.5-18.3-48-18.3-76.5c0-31.1,7.8-59.7,23.4-85.7s37-46.6,64.3-61.7s57.6-22.7,90.8-22.7c29.7,0,55.7,6.5,78.2,19.4
		s39.8,30.6,52,53.1s18.3,47.7,18.3,75.6c0,31.7-7.8,60.6-23.4,86.6c-15.6,26-37,46.4-64.3,61.3c-27.3,14.8-57.7,22.3-91.2,22.3
		C438.9,336,412.9,329.6,390.6,317z M517.7,243.4c13.1-7.3,23.6-17.4,31.5-30.2s11.9-27,11.9-42.5c0-13.2-2.9-25.3-8.8-36.1
		c-5.9-10.9-14-19.5-24.5-25.8c-10.4-6.3-22.4-9.5-35.9-9.5c-15,0-29,3.7-42.1,11s-23.6,17.4-31.5,30.2s-11.9,27-11.9,42.5
		c0,13.5,2.9,25.7,8.6,36.6c5.7,10.9,13.9,19.4,24.5,25.6c10.6,6.2,22.8,9.3,36.6,9.3C490.8,254.4,504.7,250.8,517.7,243.4z"/>
</g>
</svg>
