<?xml version="1.0" encoding="utf-8"?>
<!-- Generator: Adobe Illustrator 27.2.0, SVG Export Plug-In . SVG Version: 6.00 Build 0)  -->
<svg version="1.1" id="Lager_1" xmlns="http://www.w3.org/2000/svg" xmlns:xlink="http://www.w3.org/1999/xlink" x="0px" y="0px"
	 viewBox="0 0 1403.6 347.1" style="enable-background:new 0 0 1403.6 347.1;" xml:space="preserve">
<style type="text/css">
	.st0{fill:#F5F5F5;}
	.st1{fill:#F5F4F5;}
</style>
<g>
	<path class="st0" d="M84.2,323.4c-16.7-9.1-29.9-21.6-39.4-37.6S30.5,252,30.5,232.3c0-9.1,1.5-19.5,4.4-31.2l82.3-6.6
		c-1.2,3.8-2.4,8.2-3.5,13.2c-1.2,5-1.8,9.4-1.8,13.2c0,6.5,1.4,12.3,4.2,17.6c2.8,5.3,6.9,9.5,12.3,12.5c5.4,3.1,11.8,4.6,19.1,4.6
		c7.9,0,15.1-1.8,21.6-5.5c6.4-3.7,12.2-9.2,17.2-16.5s8.9-16.3,11.9-26.8l52.3-182.6h83.6l-59.8,206.4c-6.5,22.6-16,41.9-28.6,57.9
		s-27.7,28.1-45.3,36.3s-37.6,12.3-59.8,12.3C119.7,337.1,100.9,332.5,84.2,323.4z M395.3,318.2c-22.3-12.6-39.5-30.1-51.7-52.6
		c-12.2-22.4-18.3-47.9-18.3-76.3c0-31.1,7.8-59.6,23.3-85.6s37-46.5,64.2-61.6c27.3-15.1,57.5-22.7,90.6-22.7
		c29.6,0,55.7,6.5,78.1,19.4c22.4,12.9,39.7,30.6,51.9,53s18.3,47.6,18.3,75.5c0,31.7-7.8,60.5-23.3,86.5
		c-15.6,26-37,46.4-64.2,61.2c-27.3,14.8-57.6,22.2-91.1,22.2C443.5,337.1,417.6,330.8,395.3,318.2z M522.2,244.7
		c13-7.3,23.5-17.4,31.5-30.1c7.9-12.8,11.9-26.9,11.9-42.5c0-13.2-2.9-25.2-8.8-36.1c-5.9-10.8-14-19.4-24.4-25.7
		s-22.4-9.5-35.9-9.5c-15,0-29,3.7-42,11c-13.1,7.3-23.5,17.4-31.5,30.1c-7.9,12.8-11.9,26.9-11.9,42.5c0,13.5,2.9,25.7,8.6,36.5
		c5.7,10.9,13.9,19.4,24.4,25.5c10.6,6.2,22.7,9.2,36.5,9.2C495.3,255.7,509.2,252,522.2,244.7z M736.5,24.5h100.8
		c22.9,0,42.9,3.8,60.1,11.4c17.2,7.6,30.4,18.2,39.6,31.7c9.2,13.5,13.9,28.8,13.9,45.8c0,20.2-5.1,38.8-15.2,55.7
		c-10.1,16.9-23.8,30.1-41.1,39.8c-17.3,9.7-36.4,14.5-57.2,14.5H760l-28.2,109.1h-83.6L736.5,24.5z M809.2,308.1
		c1.8-7.8,3.5-15,5.3-21.8c1.5-6.2,2.8-12.1,4-17.8c1.2-5.7,1.8-10.3,1.8-13.9c0-10.8-3.3-18.8-9.9-23.8c-6.6-5-16.4-7.5-29.3-7.5
		l19.3-32.6c26.1,0,46.3,2.4,60.5,7.3c14.2,4.8,24,11.2,29.3,19.1s7.9,17.5,7.9,28.6c0,7.6-1.2,19.1-3.5,34.3
		c-2.1,12.9-11.8,52.4-11.8,52.4H803C802.9,332.5,807.5,315.9,809.2,308.1z M850.9,148.6c4.4-2,7.9-5.1,10.6-9.2
		c2.6-4.1,4-8.8,4-14.1c0-4.4-1.2-8.1-3.5-11.2c-2.4-3.1-5.8-5.3-10.3-6.8c-4.6-1.5-9.9-2.2-16.1-2.2h-41.4l-13.7,46.6h55.9
		C841.7,151.7,846.5,150.6,850.9,148.6z M1015.3,24h101.2l16.3,119.2c3.5,27.3,5,57.2,4.4,89.8c15-29,30.5-54.7,46.6-77l95.5-132
		h109.1l-88,308h-83.6l31.2-108.7c7.6-26.1,17-54.8,28.2-86.2c-17,28.5-33,54.1-48,77L1149.9,332h-68.2l-12.3-106.5
		c-2.9-27-5-57.2-6.2-90.6c-6.5,32.9-13.5,62.3-21.1,88.4L1010.9,332h-83.6L1015.3,24z"/>
	<g>
		<path class="st1" d="M1350.5,328.6c-3.8-2.3-6.9-5.3-9.2-9.2c-2.3-3.9-3.4-8.1-3.4-12.7s1.1-8.8,3.4-12.7c2.3-3.9,5.3-6.9,9.2-9.2
			c3.9-2.3,8-3.4,12.6-3.4s8.8,1.1,12.7,3.4c3.9,2.3,6.9,5.3,9.2,9.2c2.3,3.9,3.4,8.1,3.4,12.7s-1.1,8.8-3.4,12.7
			c-2.3,3.9-5.3,6.9-9.2,9.2c-3.9,2.3-8.1,3.4-12.7,3.4C1358.6,332,1354.4,330.9,1350.5,328.6z M1373.3,324.4
			c3.1-1.8,5.5-4.3,7.4-7.4c1.8-3.1,2.7-6.5,2.7-10.2s-0.9-7.1-2.7-10.2c-1.8-3.1-4.3-5.6-7.4-7.4s-6.5-2.7-10.1-2.7
			s-7,0.9-10.1,2.7c-3.1,1.8-5.5,4.3-7.4,7.4c-1.8,3.1-2.7,6.5-2.7,10.2s0.9,7.1,2.7,10.2c1.8,3.1,4.3,5.6,7.4,7.4s6.5,2.7,10.1,2.7
			S1370.2,326.2,1373.3,324.4z M1356.2,318.9c-2.1-1.3-3.8-3-5.1-5.1c-1.2-2.1-1.9-4.5-1.9-7.2c0-2.6,0.6-5,1.9-7.2
			c1.2-2.2,2.9-3.9,5.1-5.1c2.1-1.2,4.5-1.9,7.1-1.9c2.3,0,4.4,0.4,6.3,1.3s3.4,2,4.6,3.5s1.9,3.2,2.1,5.1l-6,0.6
			c-0.4-1.6-1.2-2.9-2.5-3.8s-2.8-1.4-4.5-1.4c-1.5,0-3,0.4-4.3,1.2c-1.3,0.8-2.3,1.9-3,3.2c-0.7,1.4-1.1,2.8-1.1,4.5
			s0.4,3.2,1.1,4.6s1.8,2.4,3,3.2c1.3,0.8,2.7,1.2,4.2,1.2c1.8,0,3.4-0.5,4.6-1.5c1.3-1,2.1-2.3,2.4-4l6.1,0.6
			c-0.5,3.1-1.9,5.5-4.3,7.3s-5.3,2.7-8.8,2.7C1360.7,320.8,1358.4,320.2,1356.2,318.9z"/>
	</g>
</g>
</svg>
