<?xml version="1.0" encoding="utf-8"?>
<!-- Generator: Adobe Illustrator 27.2.0, SVG Export Plug-In . SVG Version: 6.00 Build 0)  -->
<svg version="1.1" id="Lager_1" xmlns="http://www.w3.org/2000/svg" xmlns:xlink="http://www.w3.org/1999/xlink" x="0px" y="0px"
	 viewBox="0 0 944.4 689" style="enable-background:new 0 0 944.4 689;" xml:space="preserve">
<style type="text/css">
	.st0{fill:#F5F5F5;}
	.st1{fill:#F5F4F5;}
</style>
<g>
	<path class="st0" d="M266.2,363.2h101c22.9,0,43,3.8,60.2,11.5c17.2,7.6,30.4,18.2,39.7,31.7c9.3,13.5,13.9,28.8,13.9,45.8
		c0,20.3-5.1,38.9-15.2,55.7c-10.1,16.9-23.9,30.2-41.2,39.9c-17.3,9.7-36.4,14.5-57.3,14.5h-77.6l-28.3,109.3h-83.7L266.2,363.2z
		 M339.1,647.2c1.8-7.8,3.5-15.1,5.3-21.8c1.5-6.2,2.8-12.1,4-17.8s1.8-10.4,1.8-13.9c0-10.9-3.3-18.8-9.9-23.8s-16.4-7.5-29.3-7.5
		l19.3-32.6c26.1,0,46.3,2.4,60.6,7.3c14.2,4.8,24,11.2,29.3,19.2c5.3,7.9,7.9,17.5,7.9,28.6c0,7.6-1.2,19.1-3.5,34.4
		c-2.1,12.9-11.8,52.4-11.8,52.4h-79.9C332.8,671.7,337.4,655,339.1,647.2z M380.9,487.5c4.4-2.1,7.9-5.1,10.6-9.3
		c2.6-4.1,4-8.8,4-14.1c0-4.4-1.2-8.2-3.5-11.2c-2.4-3.1-5.8-5.4-10.4-6.8c-4.6-1.5-9.9-2.2-16.1-2.2h-41.4l-13.7,46.7h56
		C371.6,490.6,376.5,489.5,380.9,487.5z M545.5,362.7h101.4l16.3,119.4c3.5,27.3,5,57.3,4.4,89.9c15-29.1,30.6-54.8,46.7-77.1
		l95.6-132.2h109.3L831,671.2h-83.7l31.3-108.8c7.6-26.1,17-54.9,28.2-86.4c-17,28.5-33.1,54.2-48,77.1l-78.4,118.1H612l-12.3-106.6
		c-2.9-27-5-57.3-6.2-90.8c-6.5,32.9-13.5,62.4-21.2,88.6L541,671.2h-83.7L545.5,362.7z"/>
	<g>
		<path class="st1" d="M881,667.8c-3.8-2.3-6.9-5.3-9.2-9.2s-3.4-8.1-3.4-12.7c0-4.6,1.1-8.8,3.4-12.7c2.3-3.9,5.3-6.9,9.2-9.2
			s8-3.4,12.6-3.4s8.8,1.1,12.7,3.4c3.9,2.3,6.9,5.3,9.2,9.2s3.4,8.1,3.4,12.7c0,4.6-1.1,8.8-3.4,12.7c-2.3,3.9-5.3,6.9-9.2,9.2
			s-8.1,3.4-12.7,3.4C889.1,671.2,884.9,670,881,667.8z M903.8,663.5c3.1-1.8,5.5-4.3,7.4-7.4c1.8-3.1,2.7-6.5,2.7-10.2
			s-0.9-7.1-2.7-10.2c-1.8-3.1-4.3-5.6-7.4-7.4c-3.1-1.8-6.5-2.7-10.1-2.7s-7,0.9-10.1,2.7s-5.5,4.3-7.4,7.4
			c-1.8,3.1-2.7,6.5-2.7,10.2s0.9,7.1,2.7,10.2c1.8,3.1,4.3,5.6,7.4,7.4c3.1,1.8,6.5,2.7,10.1,2.7S900.7,665.3,903.8,663.5z
			 M886.7,658.1c-2.1-1.3-3.8-3-5.1-5.1c-1.2-2.1-1.9-4.5-1.9-7.2c0-2.6,0.6-5,1.9-7.2c1.2-2.2,2.9-3.9,5.1-5.1
			c2.1-1.2,4.5-1.9,7.1-1.9c2.3,0,4.4,0.4,6.3,1.3c1.9,0.9,3.4,2,4.6,3.5c1.2,1.5,1.9,3.2,2.1,5.1l-6,0.6c-0.4-1.6-1.2-2.9-2.5-3.8
			s-2.8-1.4-4.5-1.4c-1.5,0-3,0.4-4.3,1.2s-2.3,1.9-3,3.2c-0.7,1.4-1.1,2.8-1.1,4.5s0.4,3.2,1.1,4.6c0.7,1.4,1.8,2.4,3,3.2
			c1.3,0.8,2.7,1.2,4.2,1.2c1.8,0,3.4-0.5,4.6-1.5c1.3-1,2.1-2.3,2.4-4l6.1,0.6c-0.5,3.1-1.9,5.5-4.3,7.3c-2.4,1.8-5.3,2.7-8.8,2.7
			C891.3,660,888.9,659.3,886.7,658.1z"/>
	</g>
</g>
</svg>
